<?xml version="1.0" standalone="no"?>
<!DOCTYPE svg PUBLIC "-//W3C//DTD SVG 20010904//EN"
 "http://www.w3.org/TR/2001/REC-SVG-20010904/DTD/svg10.dtd">
<svg version="1.0" xmlns="http://www.w3.org/2000/svg"
 width="1000.000000pt" height="1000.000000pt" viewBox="0 0 1000.000000 1000.000000"
 preserveAspectRatio="xMidYMid meet">
<metadata>
Created by potrace 1.14, written by Peter Selinger 2001-2017
</metadata>
<g transform="translate(0.000000,1000.000000) scale(0.100000,-0.100000)"
fill="#000000" stroke="none">
<path d="M4578 8305 c-2 -2 -37 -6 -78 -10 -41 -4 -84 -9 -95 -11 -10 -2 -37
-6 -60 -9 -305 -44 -784 -221 -1123 -417 -46 -26 -86 -48 -88 -48 -3 0 -17 -8
-32 -19 -15 -10 -79 -52 -142 -93 -226 -147 -447 -348 -605 -552 -16 -21 -35
-44 -40 -50 -20 -21 -112 -152 -177 -252 -151 -231 -345 -600 -513 -979 -15
-33 -41 -89 -57 -125 -117 -252 -153 -330 -207 -443 -33 -71 -61 -130 -61
-132 0 -3 -11 -28 -25 -57 -115 -248 -166 -480 -143 -648 13 -100 17 -118 42
-183 53 -139 126 -264 241 -412 227 -291 467 -417 795 -415 117 1 146 3 235
15 52 7 334 61 371 71 18 5 22 0 28 -36 4 -23 20 -77 37 -120 95 -248 301
-415 667 -541 137 -47 447 -129 852 -224 67 -16 155 -39 265 -70 72 -20 153
-42 180 -50 28 -8 100 -28 160 -45 61 -16 119 -32 130 -35 11 -2 29 -6 40 -9
161 -41 465 -109 545 -121 14 -2 48 -8 77 -14 29 -6 74 -13 100 -16 26 -3 59
-8 73 -10 14 -3 48 -7 75 -11 28 -3 61 -7 75 -9 14 -2 59 -7 100 -10 41 -3 98
-8 125 -10 71 -7 356 -7 445 0 128 9 193 15 220 20 14 2 70 11 125 20 666 106
1208 483 1472 1025 144 295 203 580 197 960 -1 113 -5 216 -8 230 -2 14 -7 50
-11 80 -5 53 -8 77 -21 150 -60 346 -170 680 -296 894 -17 28 -53 94 -81 146
-231 439 -625 760 -1117 909 -181 55 -401 88 -601 90 l-47 1 -7 58 c-17 141
-82 347 -158 497 -45 89 -139 240 -185 297 -198 247 -405 416 -657 538 -133
65 -319 129 -425 146 -14 2 -36 7 -50 10 -74 18 -244 32 -392 32 -91 0 -168
-1 -170 -3z"/>
</g>
</svg>
